<svg width="218" height="67" viewBox="0 0 218 67" fill="none" xmlns="http://www.w3.org/2000/svg">
<rect width="217.129" height="66.5394" transform="translate(0.691406 0.230591)" fill="white"/>
<path d="M79.3503 21.4052H85.2717L98.5339 43.2905H92.2476L82.3515 26.5928L77.0791 35.428H85.5962L88.1513 39.5618H74.8078L72.415 43.2499H66.1286L79.3503 21.4052ZM183.664 43.331H189.95L192.343 39.6429H205.687L203.132 35.5091H194.615L199.887 26.6739L209.783 43.3716H216.07L202.807 21.4862H196.886L183.664 43.331ZM98.169 32.3883V35.3064C98.2906 41.0615 101.535 43.4931 106.564 43.3716H123.112V38.8729H106.605C103.847 38.9539 103.644 37.0492 103.563 35.1443V32.3884V29.5109C103.644 27.8087 103.847 25.8634 106.605 25.9039H123.112V21.4053H106.564C101.535 21.2837 98.3312 23.7559 98.169 29.4704V32.3883ZM160.992 26.1065H174.295C176.161 26.1065 177.094 26.917 177.094 28.4977C177.094 30.1188 176.161 30.8889 174.295 30.8889H162.371L163.426 35.5902H173.606C175.593 35.5496 176.729 36.9276 176.891 38.8325L177.053 43.3311H182.326C182.326 43.3311 182.285 39.1161 182.163 38.265C182.042 37.4139 181.677 35.0633 179.608 33.9285C184.475 30.7268 182.691 21.4458 175.715 21.4458H155.639V43.331H160.992L160.992 26.1065ZM139.213 43.331H143.877C149.636 43.2094 152.07 39.9671 151.948 34.9416V21.4052H146.676V36.0359C146.757 38.7918 144.81 38.9944 142.944 39.0755H139.213H135.279C133.576 38.9945 131.629 38.7918 131.669 36.0359V21.4052H126.275V34.9822C126.154 40.0077 128.628 43.2094 134.346 43.331H139.213ZM51.7851 31.1541C51.339 22.9673 48.5405 16.9692 44.7281 13.6864C40.5912 10.1604 32.8853 8.78246 26.9233 8.82301C20.9614 8.78246 13.2554 10.1604 9.11852 13.6864C5.30613 16.9693 2.5076 22.9674 2.0615 31.1541C1.65588 38.8544 3.31874 47.2438 7.69896 51.9856C11.9169 56.6464 20.3528 58.1054 26.8826 58.1054C33.4123 58.1459 41.8482 56.6464 46.0662 51.9856C50.4466 47.2032 52.1499 38.8139 51.7851 31.1541ZM25.5036 10.8899C26.3148 10.8493 26.5175 10.8493 26.8826 10.8493C27.2476 10.8493 27.4099 10.8493 28.2616 10.8899L28.3021 28.8034C28.0588 28.8034 25.7065 28.8034 25.4631 28.8034C25.4631 28.8034 25.4631 10.8899 25.5036 10.8899ZM5.34671 38.6921C5.10333 35.612 4.17054 24.3857 8.63183 17.9822C10.5381 15.1858 13.3365 13.3215 16.1755 12.3488C20.1096 10.9709 24.8142 10.8898 24.8142 10.8898C22.9891 15.3885 19.2174 25.0342 18.4873 27.1821C17.5951 29.8164 16.8244 31.316 16.0539 36.0578C15.5671 39.9486 14.7155 49.6348 14.4721 53.8498C9.19958 51.3371 6.03611 46.5548 5.34671 38.6921ZM26.8421 56.0384C23.1514 55.9979 18.6089 55.6332 14.9994 54.0931C16.2161 50.8508 22.0158 36.9091 25.2198 31.4783C25.4631 31.4783 28.2616 31.4783 28.505 31.4783C31.6684 36.9091 37.5087 50.8508 38.7255 54.0931C35.0752 55.6736 30.5733 55.9979 26.8421 56.0384ZM48.3781 38.652C47.6887 46.555 44.5251 51.2967 39.2527 53.85C39.0094 49.6351 38.1577 39.9488 37.671 36.0581C36.9004 31.2757 36.1298 29.8167 35.2375 27.1824C34.5076 25.0343 30.7357 15.3886 28.9106 10.89C28.9106 10.89 33.6152 10.971 37.5493 12.349C40.3883 13.3216 43.1867 15.2264 45.093 17.9824C49.5543 24.3859 48.6214 35.6121 48.3781 38.652Z" fill="#5F5F5F"/>
</svg>
