<svg width="144" height="67" viewBox="0 0 144 67" fill="none" xmlns="http://www.w3.org/2000/svg">
<rect width="143.585" height="66.5394" transform="translate(0.166016 0.000610352)" fill="white"/>
<path d="M118.633 58.1219C112.94 58.1219 107.499 56.2517 103.103 52.7631C98.7069 56.2158 93.2659 58.1219 87.5728 58.1219C81.8796 58.1219 76.4386 56.2517 72.0426 52.7631C67.6466 56.2158 62.2057 58.1219 56.5125 58.1219C50.8193 58.1219 45.3783 56.2517 40.9823 52.7631C36.5863 56.2158 31.1454 58.1219 25.4522 58.1219C18.8222 58.1219 12.5885 55.6044 7.86817 51.0009C3.07581 46.3974 0.40938 40.2474 0.301281 33.7019C0.193183 27.1203 2.64341 20.8984 7.21958 16.1151C11.7597 11.3678 17.9213 8.63449 24.5514 8.4187H24.6595H26.2449C31.6498 8.59852 36.7665 10.4687 40.9463 13.7415C45.0901 10.4687 50.2067 8.59852 55.6117 8.4187L55.7198 11.2239V8.4187H57.3052C62.7101 8.59852 67.8268 10.4687 72.0066 13.7415C76.1864 10.4687 81.267 8.59852 86.708 8.4187H86.8161H88.4015C93.8064 8.59852 98.9231 10.4687 103.103 13.7415C107.247 10.4687 112.363 8.59852 117.804 8.4187L117.912 11.2239V8.4187H119.498C126.092 8.63449 132.253 11.3678 136.83 16.1151C141.406 20.8625 143.856 27.1203 143.748 33.6659C143.64 40.2474 140.973 46.3974 136.253 51.0009C131.461 55.6044 125.227 58.1219 118.633 58.1219ZM107.211 48.6991C110.418 51.0368 114.381 52.4395 118.633 52.4395C129.119 52.4395 137.803 43.9878 137.947 33.6299C138.127 23.2721 129.767 14.5687 119.318 14.173H117.948C113.949 14.3169 110.273 15.6836 107.247 17.8774C110.85 22.373 112.724 27.9116 112.652 33.7019C112.507 39.2045 110.634 44.4193 107.211 48.6991ZM76.1504 48.6991C79.3573 51.0368 83.3209 52.4395 87.5728 52.4395C91.8246 52.4395 95.7522 51.0368 98.9591 48.6991C95.572 44.4553 93.6623 39.2045 93.5542 33.7019C93.4461 27.9116 95.3559 22.373 98.9591 17.8774C95.9324 15.6836 92.257 14.3169 88.2574 14.173H86.8881C82.8885 14.3169 79.2132 15.6836 76.1864 17.8774C79.7897 22.373 81.6634 27.9116 81.5913 33.7019C81.4472 39.2045 79.5374 44.4193 76.1504 48.6991ZM45.054 48.6991C48.261 51.0368 52.2246 52.4395 56.4764 52.4395C60.7283 52.4395 64.6559 51.0368 67.8628 48.6991C64.4757 44.4553 62.566 39.2045 62.4579 33.7019C62.3498 27.9116 64.2595 22.373 67.8628 17.8774C64.8361 15.6836 61.1607 14.3169 57.1611 14.173H55.7918C51.7922 14.3169 48.1168 15.6836 45.0901 17.8774C48.6934 22.373 50.5671 27.9116 50.495 33.7019C50.3509 39.2045 48.4411 44.4193 45.054 48.6991ZM24.6955 14.1371C14.246 14.4967 5.88637 23.2361 6.06653 33.594C6.2467 43.9518 14.8946 52.4035 25.3801 52.4035C29.632 52.4035 33.5596 51.0009 36.7665 48.6632C33.3794 44.4193 31.4697 39.1685 31.3616 33.6659C31.2535 27.8756 33.1632 22.337 36.7665 17.8414C33.7397 15.6476 30.0644 14.2809 26.0647 14.1371H24.6955ZM72.0066 21.9414C69.5564 25.2142 68.1511 29.2422 68.2231 33.594C68.2952 37.6939 69.7005 41.5062 72.0066 44.5992C74.3127 41.5062 75.718 37.6939 75.79 33.594C75.8621 29.2422 74.4208 25.2142 72.0066 21.9414ZM40.9103 21.9414C38.46 25.2142 37.0548 29.2422 37.1268 33.594C37.1989 37.6939 38.6042 41.5062 40.9103 44.5992C43.2164 41.5062 44.6216 37.6939 44.6937 33.594C44.7658 29.2422 43.3605 25.2142 40.9103 21.9414ZM103.067 21.9414C100.617 25.2142 99.2114 29.2422 99.2834 33.594C99.3555 37.6939 100.761 41.5062 103.067 44.5992C105.373 41.5062 106.778 37.6939 106.85 33.594C106.958 29.2422 105.517 25.2142 103.067 21.9414Z" fill="#5F5F5F"/>
</svg>
