<svg width="225" height="67" viewBox="0 0 225 67" fill="none" xmlns="http://www.w3.org/2000/svg">
<rect width="224.133" height="66.5394" transform="translate(0.104004 0.000610352)" fill="white"/>
<path d="M213.885 35.7587L215.192 35.6532C215.728 35.611 216.264 35.5477 216.757 35.4845C218.043 35.2946 219.136 34.9571 220.036 34.493C220.379 34.3242 220.551 34.1977 220.936 33.9234C222.072 33.1218 222.651 32.046 222.737 30.5694C222.758 30.274 222.737 30.042 222.715 29.7888C222.651 28.8607 222.437 28.0802 222.051 27.4684C221.601 26.7301 220.958 26.1605 220.101 25.7386C219.243 25.3167 218.15 25.0003 216.885 24.8105C216.885 24.8105 215.021 24.5151 212.256 24.5151H191.122V42.045H197.767V35.8853H206.79L216.95 42.0661H224.237L213.885 35.7587ZM210.863 26.5613C210.905 26.5613 210.927 26.5613 210.97 26.5613C211.72 26.5824 212.363 26.6035 212.92 26.6668C213.628 26.7512 214.228 26.8989 214.699 27.152C215.192 27.4051 215.578 27.7848 215.771 28.2489C215.964 28.6497 216.05 29.156 216.071 29.7678C216.071 29.8099 216.092 30.6537 216.05 31.0756C216.028 31.4975 215.921 31.9616 215.771 32.278C215.621 32.6156 215.407 32.8898 215.106 33.1218C215.021 33.1851 214.935 33.2484 214.849 33.2906C214.421 33.5226 213.885 33.6703 213.199 33.7547C212.577 33.818 211.784 33.8602 210.841 33.8602H197.724V26.5613H210.863Z" fill="#5F5F5F"/>
<path d="M21.9236 24.5362V32.7843C21.9236 35.2524 21.0019 37.0876 19.18 38.2268C17.6154 39.2182 15.3434 39.7245 12.4498 39.7245H0.104004V42.066H10.3493C13.2 42.066 15.8149 41.9605 18.1084 41.7496C20.3589 41.5386 22.2665 41.1167 23.8097 40.4839C25.3101 39.8722 26.489 38.9862 27.3034 37.847C28.0322 36.8134 28.4394 35.4633 28.5252 33.7968C28.5252 33.6492 28.5466 33.4593 28.5466 33.2484V24.5362H21.9236Z" fill="#5F5F5F"/>
<path d="M97.9927 34.029V39.7246H87.8546C82.539 39.7246 79.4525 38.037 78.6166 34.7462C78.2737 33.3751 78.488 32.0672 78.6166 31.582C79.4311 28.249 82.4747 26.6247 87.8546 26.6247H103.716V24.5363H89.9336C87.0401 24.5363 84.4252 24.6418 82.1318 24.8316C79.9026 25.0215 77.9736 25.4434 76.4304 26.0551C74.9086 26.6669 73.7512 27.5318 72.9581 28.6709C72.1865 29.7467 71.8007 31.2023 71.7578 32.9954C71.7578 33.0375 71.7578 33.0797 71.7578 33.143C71.7578 33.2274 71.7578 33.3118 71.7578 33.4172C71.7792 35.2736 72.1865 36.7713 72.9795 37.8683C73.794 39.0074 74.9729 39.8934 76.4732 40.5051C78.0165 41.138 79.9455 41.5599 82.1746 41.7708C84.468 41.9818 87.0615 42.0872 89.9336 42.0872H104.616V34.029H97.9927Z" fill="#5F5F5F"/>
<path d="M53.7094 24.5363H46.872L31.5469 42.0661H35.5121L38.963 38.1214H58.2319L61.6827 42.0661H69.056L53.7094 24.5363ZM48.5867 27.1099L56.5815 36.244H40.6134L48.5867 27.1099Z" fill="#5F5F5F"/>
<path d="M163.021 24.5363L147.696 42.0661H151.662L155.112 38.1003H174.36L177.811 42.0661H185.205L169.88 24.5363H163.021ZM172.752 36.244H156.763L164.758 27.1099L172.752 36.244Z" fill="#5F5F5F"/>
<path d="M138.073 24.5363V33.4172C138.073 34.1767 137.966 34.8728 137.816 35.5056C136.958 38.7331 133.893 40.3785 128.621 40.3996H127.956C122.662 40.3996 119.576 38.7121 118.74 35.4424C118.59 34.8306 118.504 34.1556 118.504 33.4383V24.5363H111.859V33.6915C111.859 35.59 112.267 37.151 113.081 38.2902C113.595 38.9863 114.239 39.6191 115.01 40.1254C115.482 40.4207 115.996 40.695 116.575 40.927C117.154 41.1591 117.775 41.37 118.461 41.5388C119.597 41.8341 120.883 42.045 122.298 42.1927C124.077 42.3615 126.091 42.4669 128.278 42.4669C130.485 42.4669 132.479 42.3615 134.258 42.1927C135.651 42.0661 136.937 41.8552 138.073 41.5599C138.759 41.3911 139.38 41.1802 139.959 40.9481C140.538 40.7161 141.052 40.4629 141.524 40.1465C142.317 39.6402 142.96 39.0285 143.453 38.3113C144.267 37.1721 144.674 35.6111 144.674 33.7126V24.5363H138.073Z" fill="#5F5F5F"/>
</svg>
