<svg width="80" height="67" viewBox="0 0 80 67" fill="none" xmlns="http://www.w3.org/2000/svg">
<rect width="78.7967" height="66.5394" transform="translate(0.236816 0.000610352)" fill="white"/>
<path d="M11.4214 23.0483C15.5209 11.1631 26.8546 3.13253 39.6351 3.13253C52.4157 3.13253 63.7494 11.1631 67.8489 23.0483V23.1286H76.8515V22.0846L73.154 21.6831C70.823 21.4422 70.3407 20.3982 69.6976 19.1133L69.5369 18.7921C64.1513 7.38872 52.4157 0.000610352 39.6351 0.000610352C26.8546 0.000610352 15.119 7.38872 9.65305 18.7921L9.49228 19.1133C8.92962 20.3982 8.36695 21.4422 6.11628 21.6831L2.33838 22.0846V23.1286H11.341L11.4214 23.0483Z" fill="#5F5F5F"/>
<path d="M67.9292 42.8839V42.9642C63.7494 54.8494 52.4157 62.8799 39.6351 62.8799C26.8546 62.8799 15.5209 54.8494 11.4214 42.9642V42.8839H2.33838V43.9278L6.11628 44.3293C8.44733 44.5703 8.92962 45.6142 9.57266 46.8991L9.73343 47.2203C15.0386 58.6237 26.8546 66.0119 39.6351 66.0119C52.4157 66.0119 64.1513 58.6237 69.6172 47.2203L69.778 46.8991C70.421 45.6142 70.9033 44.6506 73.2344 44.3293L77.0123 43.9278V42.8839H67.9292Z" fill="#5F5F5F"/>
<path d="M18.4952 28.8303H16.4053V37.9851H18.4952V28.8303Z" fill="#5F5F5F"/>
<path d="M11.5019 37.9048V28.8303H9.49234V35.6562L2.82073 28.8303H0.248535V37.9048H2.25806V31.0788L9.01006 37.9048H11.5019Z" fill="#5F5F5F"/>
<path d="M57.2385 28.8303L51.6118 37.9851H54.0232L54.9878 36.379H61.4987L62.4632 37.9851H64.8747L59.248 28.8303H57.2385ZM60.5341 34.6123H56.0328L58.2834 30.9182L60.5341 34.6123Z" fill="#5F5F5F"/>
<path d="M45.9048 36.0579C45.8244 36.0579 45.5833 36.0579 45.5029 36.0579H37.0629V37.9049H45.5833C45.6637 37.9049 46.146 37.9049 46.2263 37.9049C47.9947 37.7443 48.7182 36.3791 48.7182 35.0942C48.7182 33.8093 47.9143 32.5244 46.3067 32.3638C46.0656 32.3638 45.8244 32.3638 45.6637 32.3638H40.1174C39.8763 32.3638 39.7155 32.3638 39.4743 32.2835C39.0724 32.2032 38.8313 31.882 38.9117 31.4805C38.9117 31.0789 39.1528 30.7577 39.5547 30.6774C39.7155 30.5971 39.9566 30.5971 40.1174 30.5971H48.1555V28.7501H40.037C39.7959 28.7501 39.4743 28.7501 39.2332 28.8304C37.8667 28.991 36.8218 30.1153 36.8218 31.4805C36.8218 32.6047 37.5452 33.9699 39.1528 34.1305C39.4744 34.1305 39.7155 34.2108 40.037 34.1305H45.4225C45.5029 34.1305 45.7441 34.1305 45.8244 34.1305C46.3067 34.2108 46.6283 34.6124 46.6283 35.0139C46.6283 35.576 46.3067 35.9776 45.9048 36.0579Z" fill="#5F5F5F"/>
<path d="M31.1148 36.0578C31.0344 36.0578 30.7933 36.0578 30.7129 36.0578H22.3533V37.9048H30.7933C30.8736 37.9048 31.3559 37.9048 31.4363 37.9048C33.2047 37.7442 34.0085 36.379 34.0085 35.1744C34.0085 33.9698 33.2047 32.6046 31.5971 32.444C31.3559 32.444 31.1148 32.444 30.954 32.444H25.4077C25.1666 32.444 25.0058 32.444 24.7647 32.3637C24.3628 32.2834 24.1216 31.9622 24.202 31.5607C24.202 31.1591 24.4432 30.8379 24.8451 30.7576C25.0058 30.6773 25.247 30.6773 25.4077 30.6773H33.4458V28.8303H25.247C25.0058 28.8303 24.6843 28.8303 24.4432 28.9106C23.0767 29.0712 22.0317 30.1955 22.0317 31.5607C22.0317 32.6849 22.7552 34.0501 24.3628 34.2107C24.6843 34.2107 24.9255 34.291 25.247 34.2107H30.6325C30.7129 34.2107 30.954 34.2107 31.0344 34.2107C31.5167 34.291 31.8382 34.6926 31.8382 35.0941C31.9186 35.5759 31.5167 35.9775 31.1148 36.0578Z" fill="#5F5F5F"/>
<path d="M79.0219 37.9048V28.8303H77.0124V35.6562L70.3407 28.8303H67.7686V37.9048H69.7781V31.0788L76.5301 37.9048H79.0219Z" fill="#5F5F5F"/>
<path d="M73.7972 60.4708C74.7618 60.4708 75.5656 61.2738 75.5656 62.2375C75.5656 63.2012 74.7618 64.0042 73.7972 64.0042C72.8326 64.0042 72.0288 63.2012 72.0288 62.2375C72.0288 61.7557 72.1896 61.3541 72.5915 60.9526C72.8326 60.6314 73.3149 60.3905 73.7972 60.4708ZM73.7972 63.6027C74.1991 63.6027 74.5206 63.4421 74.7618 63.2012C75.0029 62.9602 75.1637 62.5587 75.1637 62.2375C75.1637 61.5147 74.5206 60.8723 73.7972 60.9526C73.0738 60.9526 72.4307 61.595 72.4307 62.3178C72.4307 62.9602 72.9934 63.6027 73.7972 63.6027ZM73.0738 63.1208V61.3541C73.3149 61.3541 73.4757 61.2738 73.7168 61.2738C74.0383 61.2738 74.5206 61.3541 74.5206 61.7557C74.5206 61.9966 74.3599 62.1572 74.1187 62.1572C74.2795 62.2375 74.3599 62.3981 74.4402 62.5587C74.4402 62.7193 74.5206 62.8799 74.601 62.9602H74.1991C74.1187 62.7996 74.1187 62.639 74.0383 62.5587C73.958 62.3178 73.7972 62.3178 73.4757 62.3178V63.0405L73.0738 63.1208ZM73.4757 62.0769C73.7972 62.0769 74.1187 62.0769 74.1187 61.836C74.1187 61.6753 74.0383 61.595 73.7168 61.595C73.6364 61.595 73.556 61.595 73.4757 61.595V62.0769Z" fill="#5F5F5F"/>
</svg>
