<svg width="225" height="67" viewBox="0 0 225 67" fill="none" xmlns="http://www.w3.org/2000/svg">
<rect width="224.133" height="66.5394" transform="translate(0.0336914 0.000610352)" fill="white"/>
<g clip-path="url(#clip0_12_523)">
<path d="M3.83415 27.128L11.5531 40.9354L20.4759 40.9586L28.0532 27.128H31.8537V24.6133H20.4287V27.128H23.7335L18.2098 37.1866L12.6153 27.128H16.6283V24.6133H0.0336914V27.128H3.83415Z" fill="#5F5F5F"/>
<path d="M102.103 27.128V24.6367H117.399V27.128H113.599V38.4207H117.14C120.421 38.4207 122.569 36.2786 122.569 33.3914H125.095V40.9587H102.127V38.3974H105.974V27.1048H102.103V27.128Z" fill="#5F5F5F"/>
<path d="M65.0191 24.2641C57.3474 24.2641 53.2637 28.0361 53.2637 32.786C53.2637 37.5825 57.1822 41.4243 65.0663 41.4243C72.9505 41.4243 76.8218 37.5825 76.8218 32.786C76.8218 28.0594 72.7145 24.2641 65.0191 24.2641ZM64.9483 38.8398C62.1393 38.7932 60.9118 35.7431 60.959 32.6929C61.0062 29.5495 62.5406 26.802 65.1608 26.8486C67.781 26.8952 69.1737 29.6892 69.1265 32.8326C69.0793 35.7896 67.8282 38.8864 64.9483 38.8398Z" fill="#5F5F5F"/>
<path d="M151.155 27.128L158.874 40.9354L167.797 40.9586L175.374 27.128H179.175V24.6133H167.75V27.128H171.054L165.531 37.1866L159.936 27.128H163.949V24.6133H147.354V27.128H151.155Z" fill="#5F5F5F"/>
<path d="M212.34 24.2641C204.669 24.2641 200.585 28.0361 200.585 32.786C200.585 37.5825 204.503 41.4243 212.388 41.4243C220.272 41.4243 224.143 37.5825 224.143 32.786C224.143 28.0594 220.036 24.2641 212.34 24.2641ZM212.27 38.8398C209.461 38.7932 208.233 35.7431 208.28 32.6929C208.328 29.5495 209.862 26.802 212.482 26.8486C215.102 26.8952 216.495 29.6892 216.448 32.8326C216.401 35.7896 215.149 38.8864 212.27 38.8398Z" fill="#5F5F5F"/>
</g>
<defs>
<clipPath id="clip0_12_523">
<rect width="224.133" height="17.1835" fill="white" transform="translate(0.0336914 24.2408)"/>
</clipPath>
</defs>
</svg>
